<?xml version="1.0" encoding="UTF-8"?>
<svg width="92px" height="92px" viewBox="0 0 92 92" version="1.1" xmlns="http://www.w3.org/2000/svg" xmlns:xlink="http://www.w3.org/1999/xlink">
    <!-- Generator: Sketch 45 (43475) - http://www.bohemiancoding.com/sketch -->
    <title>add</title>
    <desc>Created with Sketch.</desc>
    <defs></defs>
    <g id="Page-1" stroke="none" stroke-width="1" fill="none" fill-rule="evenodd">
        <g id="add" fill-rule="nonzero" fill="#2F3F54">
            <path d="M46,-2e-05 C20.6183,-2e-05 -1.99999988e-07,20.61859 -1.99999988e-07,46.00002 C-1.99999988e-07,71.38142 20.6183,92.00002 46,92.00002 C71.3813,92.00002 92,71.38142 92,46.00002 C92,20.61857 71.3813,-2e-05 46,-2e-05 Z M46,3.99998 C69.2195,3.99998 88,22.78035 88,46.00002 C88,69.21962 69.2195,88.00002 46,88.00002 C22.7801,88.00002 3.9999998,69.21962 3.9999998,46.00002 C3.9999998,22.78033 22.7801,3.99998 46,3.99998 Z" id="Shape"></path>
            <path d="M46,22 C43.6609882,22 42.7647059,23.8962118 42.7647059,26.2352941 L42.7647059,42.7647059 L26.2352941,42.7647059 C23.8962118,42.7647059 22,43.6608188 22,45.9999647 C22,48.3389765 23.8962118,49.2352588 26.2352941,49.2352588 L42.7647059,49.2352588 L42.7647059,65.7647412 C42.7647059,68.1038235 43.6609882,70.0000353 46,70.0000353 C48.3391529,70.0000353 49.2352941,68.1038235 49.2352941,65.7647412 L49.2352941,49.2352588 L65.7647059,49.2352588 C68.1037882,49.2352588 70,48.3389765 70,45.9999647 C70,43.6608188 68.1037882,42.7647059 65.7647059,42.7647059 L49.2352941,42.7647059 L49.2352941,26.2352941 C49.2352941,23.8962118 48.3391529,22 46,22 Z" id="Shape"></path>
        </g>
    </g>
</svg>