<?xml version="1.0" encoding="UTF-8"?>
<svg width="92px" height="92px" viewBox="0 0 92 92" version="1.1" xmlns="http://www.w3.org/2000/svg" xmlns:xlink="http://www.w3.org/1999/xlink">
    <!-- Generator: Sketch 44.1 (41455) - http://www.bohemiancoding.com/sketch -->
    <title>edit</title>
    <desc>Created with Sketch.</desc>
    <defs></defs>
    <g id="Page-1" stroke="none" stroke-width="1" fill="none" fill-rule="evenodd">
        <g id="edit" fill-rule="nonzero" fill="#2F3F54">
            <path d="M46,-2e-05 C20.6183,-2e-05 -1.99999988e-07,20.61859 -1.99999988e-07,46.00002 C-1.99999988e-07,71.38142 20.6183,92.00002 46,92.00002 C71.3813,92.00002 92,71.38142 92,46.00002 C92,20.61857 71.3813,-2e-05 46,-2e-05 Z M46,3.99998 C69.2195,3.99998 88,22.78035 88,46.00002 C88,69.21962 69.2195,88.00002 46,88.00002 C22.7801,88.00002 3.9999998,69.21962 3.9999998,46.00002 C3.9999998,22.78033 22.7801,3.99998 46,3.99998 Z" id="Shape"></path>
            <path d="M30.8637328,64.9233484 C30.8637328,67.6882817 33.1054691,69.9300181 35.8704024,69.9300181 L56.9409717,69.9300181 C59.705905,69.9300181 61.9476414,67.6882817 61.9476414,64.9233484 L61.9476414,33.4489196 L30.8637328,33.4489196 L30.8637328,64.9233484 Z M53.9601258,25.7380225 L52.3116798,23 L40.4996944,23 L38.8512484,25.7380225 L29,25.7380225 L29,31.8061061 L63.812,31.8061061 L63.812,25.7380225 L53.9601258,25.7380225 Z" id="Shape"></path>
        </g>
    </g>
</svg>