<?xml version="1.0" encoding="UTF-8"?>
<svg width="92px" height="92px" viewBox="0 0 92 92" version="1.1" xmlns="http://www.w3.org/2000/svg" xmlns:xlink="http://www.w3.org/1999/xlink">
    <!-- Generator: Sketch 44.1 (41455) - http://www.bohemiancoding.com/sketch -->
    <title>edit</title>
    <desc>Created with Sketch.</desc>
    <defs></defs>
    <g id="Page-1" stroke="none" stroke-width="1" fill="none" fill-rule="evenodd">
        <g id="edit" fill-rule="nonzero" fill="#2F3F54">
            <g id="edit-line">
                <g id="Group">
                    <path d="M24.6699975,56.7641339 L24.0033842,66.0809455 C23.9769546,66.4598291 24.106166,66.8325016 24.3616522,67.0995835 C24.5936453,67.3449263 24.9078639,67.4815728 25.2308924,67.4815728 C25.2631952,67.4815728 25.2925614,67.4815728 25.3248643,67.4784672 L34.1406046,66.7734951 C34.4342668,66.7517559 34.7103093,66.6151093 34.9188095,66.3946115 L67.5887331,31.8354518 C68.0703392,31.3261328 68.0703392,30.5031478 67.5887331,29.9938288 L59.4454793,21.3819893 C58.9638733,20.8726702 58.1856683,20.8726702 57.7040623,21.3819893 L25.0253288,55.9411489 C24.8168286,56.1616468 24.6905539,56.4535735 24.6699975,56.7641339 Z" id="Shape"></path>
                    <path d="M39,68.5078974 C39,69.3428192 39.3266064,70.0157949 39.7279153,70.0157949 L67.3053089,70.0157949 C67.7083552,70.0157949 68.0332243,69.3392204 68.0332243,68.5078974 C68.0332243,67.6729757 67.7066179,67 67.3053089,67 L39.7279153,67 C39.3248692,67 39,67.6765745 39,68.5078974 Z" id="Shape"></path>
                    <path d="M46,-2e-05 C20.6183,-2e-05 -2.00000002e-07,20.61859 -2.00000002e-07,46.00002 C-2.00000002e-07,71.38142 20.6183,92.00002 46,92.00002 C71.3813,92.00002 92,71.38142 92,46.00002 C92,20.61857 71.3813,-2e-05 46,-2e-05 Z M46,3.99998 C69.2195,3.99998 88,22.78035 88,46.00002 C88,69.21962 69.2195,88.00002 46,88.00002 C22.7801,88.00002 3.9999998,69.21962 3.9999998,46.00002 C3.9999998,22.78033 22.7801,3.99998 46,3.99998 Z" id="Shape"></path>
                </g>
            </g>
        </g>
    </g>
</svg>