<?xml version="1.0" encoding="UTF-8"?>
<svg width="34px" height="34px" viewBox="0 0 34 34" version="1.1" xmlns="http://www.w3.org/2000/svg" xmlns:xlink="http://www.w3.org/1999/xlink">
    <!-- Generator: Sketch 45 (43475) - http://www.bohemiancoding.com/sketch -->
    <title>edit</title>
    <desc>Created with Sketch.</desc>
    <defs></defs>
    <g id="Page-1" stroke="none" stroke-width="1" fill="none" fill-rule="evenodd">
        <g id="edit" transform="translate(1.000000, 1.000000)">
            <g id="Oval-2">
                <g id="path-1-link" transform="translate(1.000000, 1.000000)" fill="#FFFFFF">
                    <ellipse id="path-1" cx="14.7381015" cy="15.0667804" rx="14.430596" ry="14.2385679"></ellipse>
                </g>
                <circle id="Oval" stroke="#2F3F54" stroke-width="3" cx="16" cy="16" r="15.5"></circle>
            </g>
            <g id="edit-line" transform="translate(8.000000, 8.000000)" fill-rule="nonzero" fill="#2F3F54">
                <g id="Group">
                    <path d="M1.03143693,10.1386851 L0.841830474,12.7798848 C0.834313037,12.8872936 0.87106495,12.9929416 0.943733503,13.0686559 C1.00971989,13.1382075 1.09909386,13.1769451 1.19097364,13.1769451 C1.20016162,13.1769451 1.20851432,13.1769451 1.2177023,13.1760647 L3.72518504,12.976214 C3.80871211,12.9700512 3.88722756,12.9313136 3.94653178,12.8688052 L13.2389186,3.07171522 C13.3759031,2.92732963 13.3759031,2.69402366 13.2389186,2.54963808 L10.9227129,0.108289186 C10.7857285,-0.0360963954 10.5643818,-0.0360963954 10.4273974,0.108289186 L1.13250469,9.90537915 C1.07320047,9.96788754 1.03728382,10.0506451 1.03143693,10.1386851 Z" id="Shape"></path>
                    <path d="M5.08366543,13.6044152 C5.08366543,13.8411051 5.1765629,14.0318853 5.29070818,14.0318853 L13.1346142,14.0318853 C13.2492536,14.0318853 13.3416569,13.8400849 13.3416569,13.6044152 C13.3416569,13.3677253 13.2487595,13.1769451 13.1346142,13.1769451 L5.29070818,13.1769451 C5.17606877,13.1769451 5.08366543,13.3687456 5.08366543,13.6044152 Z" id="Shape"></path>
                </g>
            </g>
        </g>
    </g>
</svg>