<?xml version="1.0" encoding="UTF-8"?>
<svg width="92px" height="92px" viewBox="0 0 92 92" version="1.1" xmlns="http://www.w3.org/2000/svg" xmlns:xlink="http://www.w3.org/1999/xlink">
    <title>Group</title>
    <defs></defs>
    <g id="Page-1" stroke="none" stroke-width="1" fill="none" fill-rule="evenodd">
        <g id="Group" transform="translate(0.000000, -0.362180)" fill-rule="nonzero" fill="#000000">
            <path d="M46,0.36216 C20.6183,0.36216 -2.00000002e-07,20.98077 -2.00000002e-07,46.3622 C-2.00000002e-07,71.7436 20.6183,92.3622 46,92.3622 C71.3813,92.3622 92,71.7436 92,46.3622 C92,20.98075 71.3813,0.36216 46,0.36216 Z M46,4.36216 C69.2195,4.36216 88,23.14253 88,46.3622 C88,69.5818 69.2195,88.3622 46,88.3622 C22.7801,88.3622 3.9999998,69.5818 3.9999998,46.3622 C3.9999998,23.14251 22.7801,4.36216 46,4.36216 Z M20,27.36216 C17.784,27.36216 16,29.14615 16,31.36216 L16,61.3622 C16,63.5782 17.784,65.3622 20,65.3622 L72,65.3622 C74.216,65.3622 76,63.5782 76,61.3622 L76,31.36216 C76,29.14615 74.216,27.36216 72,27.36216 L20,27.36216 Z M25.7812,33.33091 C25.8228565,33.3296077 25.8645435,33.3296077 25.9062,33.33091 C26.4520702,33.3099724 26.9827534,33.5132059 27.375,33.89341 L44.1562,49.7059 C44.954,50.4577 47.0108,50.4595 47.8125,49.7059 L64.625,33.89341 C65.4275388,33.1340187 66.6937333,33.1689965 67.4531248,33.9715352 C68.2125162,34.7740739 68.1775386,36.0402684 67.375,36.79966 L57.5312,46.0497 L67.4062,55.9247 C67.9318942,56.4233305 68.1468272,57.1672688 67.9680561,57.8694281 C67.7892849,58.5715874 67.244765,59.1221674 66.5446272,59.3086987 C65.8444894,59.4952299 65.098218,59.2885435 64.5938,58.7684 L54.5938,48.7684 L50.5312,52.6122 C47.9752,55.015 43.9615,55.0209 41.4062,52.6122 L37.375,48.7997 L27.4062,58.7684 C26.901782,59.2885435 26.1555106,59.4952299 25.4553728,59.3086987 C24.755235,59.1221674 24.2107151,58.5715874 24.0319439,57.8694281 C23.8531728,57.1672688 24.0681058,56.4233305 24.5938,55.9247 L34.4688,46.0497 L24.625,36.79966 C24.0407548,36.2667313 23.8253405,35.4396184 24.0754019,34.6894019 C24.3254632,33.9391854 24.9940486,33.4067263 25.7812,33.33091 L25.7812,33.33091 Z" id="Shape"></path>
        </g>
    </g>
</svg>