<?xml version="1.0" encoding="UTF-8"?>
<svg width="92px" height="92px" viewBox="0 0 92 92" version="1.1" xmlns="http://www.w3.org/2000/svg" xmlns:xlink="http://www.w3.org/1999/xlink">
    <!-- Generator: Sketch 44.1 (41455) - http://www.bohemiancoding.com/sketch -->
    <title>add</title>
    <desc>Created with Sketch.</desc>
    <defs></defs>
    <g id="Page-1" stroke="none" stroke-width="1" fill="none" fill-rule="evenodd">
        <g id="add" fill-rule="nonzero" fill="#2F3F54">
            <path d="M46,-2e-05 C20.6183,-2e-05 -1.99999988e-07,20.61859 -1.99999988e-07,46.00002 C-1.99999988e-07,71.38142 20.6183,92.00002 46,92.00002 C71.3813,92.00002 92,71.38142 92,46.00002 C92,20.61857 71.3813,-2e-05 46,-2e-05 Z M46,3.99998 C69.2195,3.99998 88,22.78035 88,46.00002 C88,69.21962 69.2195,88.00002 46,88.00002 C22.7801,88.00002 3.9999998,69.21962 3.9999998,46.00002 C3.9999998,22.78033 22.7801,3.99998 46,3.99998 Z" id="Shape"></path>
            <path d="M38.154303,25 C33.1955072,25 29.1676852,29.5038325 29.1676852,35.0420202 C29.1676852,40.5780252 33.1974927,45.0837109 38.154303,45.0837109 C43.1089953,45.0837109 47.1370847,40.5780252 47.1370847,35.0420202 C47.1370847,29.5058843 43.1089953,25 38.154303,25 Z M38.154303,29.1376909 C40.8251773,29.1376909 42.9995235,31.7857311 42.9995235,35.0420202 C42.9995235,38.2981784 40.8251773,40.9460861 38.154303,40.9460861 C35.4793913,40.9460861 33.3052437,38.2961266 33.3052437,35.0420202 C33.3052437,31.7857311 35.4793913,29.1376909 38.154303,29.1376909 Z M59.2496064,30.6975652 C55.1368676,30.6975652 51.7875194,34.4150405 51.7875194,38.9828737 C51.7875194,43.5507744 55.1368676,47.2661979 59.2496064,47.2661979 C63.3643969,47.2661979 66.7075898,43.5507744 66.7075898,38.9828737 C66.7075898,34.4150405 63.362279,30.6975652 59.2496064,30.6975652 Z M59.2496064,34.834859 C61.0803804,34.834859 62.5718844,36.6969378 62.5700974,38.9828737 C62.5700974,41.2688758 61.0803804,43.1287055 59.2496064,43.1287055 C57.4166482,43.1287055 55.9251442,41.2667578 55.9251442,38.9828737 C55.9251442,36.6948198 57.4145964,34.834859 59.2496064,34.834859 L59.2496064,34.834859 Z M37.9930074,47.2309207 C34.4585367,47.229597 30.9178445,47.8310964 27.5416245,49.0393238 C24.2687875,50.2496031 21.792368,53.933853 22.0137605,57.2521598 L22.5992429,65.8480149 C22.675754,66.9341951 23.5776721,67.7742293 24.6638524,67.7742293 L51.2992645,67.7742293 L51.2992645,67.780186 C52.3854448,67.780186 53.2915988,66.9381663 53.3660582,65.8520522 L53.9515405,57.2624187 C54.1811401,53.9378903 51.704853,50.253508 48.4071962,49.0391253 C45.0557962,47.8360603 41.5274782,47.2319797 37.9930074,47.2307221 L37.9930074,47.2309207 Z M56.3125977,49.4735709 C55.2137097,49.4811161 54.3335668,50.4010369 54.3135124,51.5072715 C54.2927961,52.6512985 55.205304,53.5925974 56.3451612,53.6133136 C58.8380611,53.6567317 61.2833732,54.1015686 63.5982986,54.9290273 C64.9038197,55.4090752 65.9297706,57.0972181 65.8572968,58.1460695 L65.4808302,63.636406 L56.8064784,63.636406 C55.6624515,63.636406 54.7375006,64.5613569 54.7375006,65.7053838 C54.7375006,66.8494107 55.6624515,67.7742293 56.8064784,67.7742293 L67.4131999,67.7742293 C68.4992478,67.7742293 69.401166,66.9321434 69.4777433,65.8480149 L69.9866483,58.4272942 C70.1935461,55.4399179 67.9715459,52.1278325 65.0132253,51.0396667 C62.253463,50.0528318 59.3613947,49.525527 56.4195544,49.475755 C56.3837477,49.4744313 56.3480734,49.4737695 56.3125977,49.4737695 L56.3125977,49.4735709 Z M37.9877787,51.3692073 C41.0506072,51.3692073 44.1092686,51.8879741 46.9963068,52.9222644 C48.6720068,53.5407736 49.9133273,55.6405942 49.8202696,56.9729206 L49.3670933,63.636406 L26.5982077,63.636406 L26.5982077,63.6324348 L26.143112,56.9687509 C26.0540255,55.6386086 27.293228,53.5366701 28.9543673,52.9222644 C31.857952,51.8858561 34.9250164,51.368744 37.9877787,51.3692735 L37.9877787,51.3692073 Z" id="Shape"></path>
        </g>
    </g>
</svg>