<?xml version="1.0" encoding="UTF-8"?>
<svg width="92px" height="93px" viewBox="0 0 92 93" version="1.1" xmlns="http://www.w3.org/2000/svg" xmlns:xlink="http://www.w3.org/1999/xlink">
    <title>Group</title>
    <defs></defs>
    <g id="Page-1" stroke="none" stroke-width="1" fill="none" fill-rule="evenodd">
        <g id="Group" fill-rule="nonzero" fill="#000000">
            <path d="M46,0.36216 C20.6183,0.36216 -2.00000002e-07,20.98077 -2.00000002e-07,46.3622 C-2.00000002e-07,71.7436 20.6183,92.3622 46,92.3622 C71.3813,92.3622 92,71.7436 92,46.3622 C92,20.98075 71.3813,0.36216 46,0.36216 Z M46,4.36216 C69.2195,4.36216 88,23.14253 88,46.3622 C88,69.5818 69.2195,88.3622 46,88.3622 C22.7801,88.3622 3.9999998,69.5818 3.9999998,46.3622 C3.9999998,23.14251 22.7801,4.36216 46,4.36216 Z" id="Shape"></path>
            <path d="M44.714918,65.3982348 C45.4770543,68.1100061 46.7957461,71.4276995 47.0567794,73.1426751 C47.916296,78.7873523 39.9229949,81.4835698 36.7851846,76.928335 C35.2866097,74.7501266 35.2196607,72.7362475 34.0828808,69.1798371 C30.0781152,70.2861857 27.9127556,71.9091911 24.8932895,71.5216985 C20.3414359,70.9380929 19.159347,64.6509761 22.371545,61.7917817 C24.3908341,59.9943034 27.6787723,60.033526 30.4804852,58.7297117 C30.4804852,58.7297117 27.8431016,50.4334496 26.3350592,46.4760217 C23.3264131,47.3713796 18.9199537,49.2533895 16.9655848,48.8178831 C14.5872058,47.8934463 12.9608192,45.9769475 13.0007181,43.4132754 C13.0852496,38.1817883 19.0288303,37.7997058 22.9125468,36.2057793 C21.9522686,33.1626444 20.3617234,31.056795 20.5686566,27.7370729 C20.8371287,23.4692452 25.8995528,20.9975434 29.5797173,23.5923231 C31.3183617,24.8176921 32.4456742,29.2850142 33.5425553,32.6013551 L45.6163622,28.6378408 C44.234779,24.2185326 41.5899566,19.8702309 44.8941249,16.5640339 C47.369208,14.0903033 51.7364447,14.7158366 53.5447431,17.2842425 C55.2069711,19.647744 55.3787391,22.5265496 56.2463707,25.0327403 C59.5126689,23.9162479 63.6330736,21.8367724 66.7079924,22.8802295 C69.2337944,23.7377173 70.4496959,27.0743457 69.7619474,29.1781664 C68.4932983,33.1971333 63.9252146,33.7320487 59.8501188,35.1230995 L63.8149855,47.3767896 C67.2016565,46.2670597 68.9186609,44.8367863 72.1038088,44.8550451 C75.3538769,44.8733039 77.3907486,47.2151653 77.6903283,49.5387679 C78.4632846,55.5682326 71.6554536,56.1126157 67.4187335,57.6470319 C68.7211953,61.8594069 69.8288964,62.7649087 69.7626237,66.1157384 C69.6469845,71.8483284 62.4070284,73.1751352 59.3104695,68.8193947 C58.1885671,67.2416983 57.9058936,64.7104863 56.7866962,61.4313393 C56.7866962,61.4313393 44.9042686,65.5659453 44.714918,65.3982348 Z M53.1836245,50.9812139 L48.8583153,38.7275238 L37.1469795,42.8709211 L41.1104937,54.9440518 L53.1836245,50.9812139 Z" id="Shape"></path>
        </g>
    </g>
</svg>